HIERARCHY
ROOT Hips
{
	OFFSET 0.000000 0.000000 0.000000
	CHANNELS 6 Xposition Yposition Zposition Zrotation Yrotation Xrotation 
	JOINT LHipJoint
	{
		OFFSET 0.000000 0.000000 0.000000
		CHANNELS 3 Zrotation Yrotation Xrotation
		JOINT LeftUpLeg
		{
			OFFSET 1.363060 -1.794630 0.839290
			CHANNELS 3 Zrotation Yrotation Xrotation
			JOINT LeftLeg
			{
				OFFSET 2.448110 -6.726130 0.000000
				CHANNELS 3 Zrotation Yrotation Xrotation
				JOINT LeftFoot
				{
					OFFSET 2.562200 -7.039590 0.000000
					CHANNELS 3 Zrotation Yrotation Xrotation
					JOINT LeftToeBase
					{
						OFFSET 0.157640 -0.433110 2.322550
						CHANNELS 3 Zrotation Yrotation Xrotation
						End Site
						{
							OFFSET 0.000000 0.000000 0.000000
						}
					}
				}
			}
		}
	}
	JOINT RHipJoint
	{
		OFFSET 0.000000 0.000000 0.000000
		CHANNELS 3 Zrotation Yrotation Xrotation
		JOINT RightUpLeg
		{
			OFFSET -1.305520 -1.794630 0.839290
			CHANNELS 3 Zrotation Yrotation Xrotation
			JOINT RightLeg
			{
				OFFSET -2.542530 -6.985550 0.000000
				CHANNELS 3 Zrotation Yrotation Xrotation
				JOINT RightFoot
				{
					OFFSET -2.568260 -7.056230 0.000000
					CHANNELS 3 Zrotation Yrotation Xrotation
					JOINT RightToeBase
					{
						OFFSET -0.164730 -0.452590 2.363150
						CHANNELS 3 Zrotation Yrotation Xrotation
						End Site
						{
							OFFSET 0.000000 0.000000 0.000000
						}
					}
				}
			}
		}
	}
}
MOTION
Frames: 16
Frame Time: 0.008333
-1.136902 16.749997 1.786887 107.978229 -86.661129 -92.076301 -8.781158 1.090294 3.677341 -13.660587 -5.062138 -40.936641 -2.085422 0.962268 30.594503 0.870299 3.821464 -4.931385 0.376800 -0.000000 -34.806700 11.837704 -3.986744 0.462765 -2.869426 -5.904581 -2.509833 -0.105733 -2.333865 32.177733 -0.007904 13.124377 23.600820 6.769600 -0.000000 -93.206300
-1.316918 16.706831 1.792522 104.550089 -86.512647 -88.880432 -8.673754 1.154771 3.651613 -13.918627 -5.647118 -40.707964 -1.978640 1.094423 32.674128 1.013141 4.391552 -6.234791 0.266600 0.000000 -33.126600 12.050809 -3.874692 0.324858 -3.580767 -6.535680 -2.971624 -0.228030 -2.410129 34.285003 -0.100975 14.219278 24.994438 7.663800 -0.000000 -91.154200
-1.494356 16.674575 1.796597 102.973719 -86.293078 -87.504180 -8.587250 1.214774 3.615229 -14.232098 -6.096583 -40.282908 -1.913996 1.183541 34.266800 1.157908 4.962563 -7.581037 0.126700 -0.000001 -32.087600 12.230722 -3.749964 0.213012 -4.277157 -7.019092 -3.597335 -0.351072 -2.484776 36.493867 -0.220855 14.958170 26.435512 8.427300 -0.000000 -88.482701
-1.669182 16.653803 1.799395 103.100729 -86.022246 -87.811059 -8.517201 1.270939 3.563814 -14.593750 -6.388164 -39.660051 -1.889636 1.230817 35.359178 1.300640 5.514024 -8.917054 -0.039100 0.000000 -31.688100 12.381831 -3.615716 0.127035 -4.947429 -7.359614 -4.373295 -0.471638 -2.560414 38.774751 -0.363236 15.234695 27.847722 8.958500 0.000000 -85.351700
-1.841608 16.644565 1.801458 104.652844 -85.721274 -89.532131 -8.462774 1.324237 3.494504 -14.980065 -6.505305 -38.848703 -1.900051 1.239191 35.966100 1.436020 6.022568 -10.185873 -0.222200 0.000000 -31.850100 12.505666 -3.474881 0.065752 -5.567837 -7.562281 -5.277226 -0.588601 -2.638529 41.088923 -0.524678 14.946938 29.153205 9.149300 0.000000 -82.007600
-2.011969 16.646534 1.803617 107.295070 -85.410206 -92.339970 -8.426940 1.375037 3.406128 -15.357205 -6.439732 -37.867242 -1.937332 1.212999 36.124769 1.557455 6.464551 -11.330489 -0.409600 0.000001 -32.437800 12.600951 -3.330702 0.027085 -6.105565 -7.633634 -6.281351 -0.702371 -2.719433 43.393541 -0.703323 14.016421 30.273573 8.906000 -0.000001 -78.734500
-2.180482 16.659040 1.806291 110.661878 -85.095092 -95.878699 -8.408777 1.425841 3.299887 -15.704391 -6.205965 -36.727551 -1.993605 1.157271 35.878411 1.659401 6.828927 -12.295443 -0.585300 -0.000000 -33.276400 12.670939 -3.182832 0.005410 -6.549294 -7.594392 -7.353257 -0.814482 -2.802665 45.647127 -0.898480 12.417611 31.127193 8.177900 -0.000000 -75.773400
-2.347404 16.681116 1.809870 114.397408 -84.783454 -99.797391 -8.408981 1.477906 3.179597 -15.999392 -5.830472 -35.449372 -2.060485 1.077929 35.282765 1.736837 7.108950 -13.035964 -0.733800 0.000000 -34.186900 12.717287 -3.031740 -0.005100 -6.886322 -7.467470 -8.462132 -0.925994 -2.887352 47.810122 -1.109393 10.178401 31.629878 6.967200 -0.000000 -73.249200
-2.513138 16.711657 1.814614 118.188503 -84.487637 -103.780549 -8.428975 1.531746 3.052077 -16.222194 -5.349742 -34.061396 -2.129902 0.981454 34.402265 1.786203 7.302695 -13.522386 -0.842300 0.000000 -35.019100 12.740591 -2.879210 -0.009606 -7.104728 -7.278479 -9.584308 -1.037123 -2.972468 49.847720 -1.333734 7.391410 31.701358 5.341600 -0.000000 -71.148700
-2.677893 16.749393 1.820367 121.752839 -84.217476 -107.542701 -8.465934 1.588750 2.925103 -16.367173 -4.812484 -32.586508 -2.195787 0.874081 33.296022 1.806957 7.418843 -13.740493 -0.902700 0.000000 -35.673000 12.744727 -2.725716 -0.014993 -7.210189 -7.060244 -10.697640 -1.147256 -3.057539 51.728955 -1.566442 4.220893 31.279957 3.438300 -0.000000 -69.343800
-2.842033 16.793105 1.827075 124.915599 -83.994459 -110.897343 -8.521532 1.648208 2.808684 -16.422640 -4.261829 -31.066815 -2.252788 0.762058 32.031328 1.799788 7.462311 -13.697683 -0.913200 0.000000 -36.105500 12.728478 -2.575388 -0.023661 -7.195803 -6.837189 -11.795182 -1.254570 -3.141148 53.427774 -1.799752 0.874952 30.341770 1.438700 0.000000 -67.663400
-3.005599 16.841600 1.834237 127.530042 -83.833628 -113.689607 -8.591761 1.710705 2.709954 -16.394153 -3.741243 -29.530408 -2.298558 0.650358 30.660792 1.768267 7.445562 -13.416294 -0.877000 -0.000000 -36.321701 12.695339 -2.429878 -0.039449 -7.075309 -6.636155 -12.869316 -1.356220 -3.222174 54.923337 -2.023440 -2.409534 28.912051 -0.457100 -0.000000 -65.915701
-3.168888 16.893802 1.841437 129.534910 -83.752335 -115.842156 -8.675666 1.775988 2.636338 -16.284011 -3.281024 -28.017246 -2.332020 0.542822 29.235647 1.716424 7.375080 -12.933529 -0.801700 0.000000 -36.365800 12.645535 -2.292621 -0.060591 -6.853996 -6.471745 -13.925845 -1.448261 -3.297521 56.200062 -2.226918 -5.420230 27.074545 -2.081099 0.000000 -64.024900
-3.331848 16.948703 1.848146 130.878821 -83.760126 -117.291140 -8.769124 1.843966 2.592409 -16.103913 -2.902884 -26.562344 -2.354135 0.441696 27.794733 1.649214 7.258593 -12.292739 -0.697100 -0.000001 -36.307900 12.582127 -2.164638 -0.084514 -6.547962 -6.356394 -14.978618 -1.526388 -3.364445 57.254687 -2.399376 -7.988942 24.946194 -3.322800 0.000001 -61.894300
-3.493952 17.005515 1.853914 131.540958 -83.859514 -118.026549 -8.870144 1.913513 2.570319 -15.864927 -2.598573 -25.159723 -2.367255 0.348268 26.357343 1.569820 7.096517 -11.538186 -0.573499 0.000000 -36.238400 12.506770 -2.046342 -0.113408 -6.176295 -6.289529 -16.004360 -1.586123 -3.420695 58.075522 -2.533346 -10.023883 22.685873 -4.151800 -0.000000 -59.662799
-3.655636 17.063370 1.858402 131.503496 -84.047331 -118.007202 -8.975447 1.984660 2.574954 -15.578700 -2.370223 -23.856507 -2.373350 0.262283 24.951487 1.482298 6.891951 -10.708979 -0.440200 0.000000 -36.248600 12.422416 -1.937522 -0.137650 -5.752232 -6.271654 -17.043293 -1.624779 -3.463349 58.679498 -2.622689 -11.490925 20.429296 -4.596100 -0.000000 -57.405900
